<?xml version="1.0" encoding="UTF-8"?>
<svg data-bbox="4.572 2.054 312.197 83.806" viewBox="0 0 320.59 87.11" xmlns="http://www.w3.org/2000/svg" data-type="shape">
    <g>
        <path d="M306.29 5.36c-12.31 0-32.56 7.27-32.56 28.59h-6.3l.02 5.8c-.1.71.41.81 1.12.81h4.65c0 7.73.1 29.31.1 33.07 0 8.07-.09 9.92-4.22 10.22-3.3-.29-3.99-1.97-3.99-11.14V2.82c0-.51-1.53-.92-1.83-.71-3.46 1.93-12.31 4.88-17.4 5.8-.81.1-.81 1.02 0 .92 5.09-.92 6.61-.81 6.61 7.94V36.2c-4.76-13.48-17.21-21.64-33.54-21.64-16.34 0-28.82 8.83-34.59 21.07 1.14-6.08 1.92-10.28 1.96-10.46.59-2.56 1.69-5.01 2.81-6.38 2.06-2.52 3.8-3.26 6.47-3.26h1.45c.72 0 .82-1.22 0-1.22h-19.71c-1.02 0-1.1.31-1.1.61 0 .31.2.61.72.61.41 0 1.9-.02 2.71 0 .1 0 .21.01.31.02 3.49.35 5.46 4.75 4.94 7.96l-8.1 45.34s-19.64-46.73-20.68-50.81c-.03-.11-.03-.19-.04-.24-.26-1.23.16-2.28 3.07-2.28h.41c.82 0 .82-1.21 0-1.21h-22.77c-.72 0-.82 1.19 0 1.19h1.04c4.61 0 3.8 1.17 9.33 14.69l3.9 9.37-8.49 37.79s-.32.57-.86.57c-.32 0-.64-.14-.75-.34l-13.95-36.75c-5.94-15.16-7.68-20.29-7.68-22.75.1-1.74 1.33-2.57 4-2.57h1.54c.82 0 .72-1.22 0-1.22H97.43c-.72 0-.79 1.22.1 1.22h.2c5.43 0 6.56.31 14.14 20.09l.07.19c-2.88-1.73-6.95-2.87-12.55-2.87-10.28 0-19.7 5.52-25.26 13.27-1.44-19.51-17.22-31.87-38.82-31.87-2.95 0-11.6.2-13.13.2s-15.87-.2-16.69-.2c-.81 0-.81.92 0 .92 6.11 0 6.41.92 6.41 17.3 0 2.14.1 11.8.1 13.64 0 1.83.1 16.59 0 19.33-.2 17.81-1.02 18.52-6.82 18.52-.81 0-.81.81 0 .81 1.53 0 15.98-.3 18.21-.3 1.42 0 9.06.3 12.31.3 15.83 0 27.76-6.64 33.91-17.29 2.41 11.19 11.62 18.31 24.91 18.31 6.31 0 11.19-1.73 15.98-4.89 5.12-3.46 9.6-9.01 12.97-15.21l7.26 18.89c.21.41.51.51 1.13.51h9.45c.41 0 .82-.1.92-.51l1.51-5.42 8.18-36.87 17.42 42.29c.2.51.51.51 1.13.51h3.83c.51 0 .82-.1.92-.51l.06-.3s2.85-15.31 5.66-30.36c1.19 19.17 15.69 31.58 35.83 31.58 17.52 0 30.78-11.54 35.72-24.99v12.14c0 9.97-.61 11.19-4.99 11.19-.81 0-.81.92 0 .92 2.95 0 11.19-.2 12.72-.2 1.02 0 4.09.09 6.9.15.08.03.18.05.29.05 2.95.1 10.99-.2 12.52-.2s9.67.2 12.62.2c.82 0 .82-.92 0-.92-6 0-6.72-.31-6.82-10.28 0 0-.1-20.15-.1-33.07h9.67c.81-.92 3.46-6.31 3.46-6.51 0-.1-.2-.1-1.42-.1h-11.7v-3.36c0-14.25 2.03-18.83 7.22-18.83 5.7 0 9.97 5.09 15.57 5.09 4.27 0 8.34-4.27 8.34-7.73 0-2.23-4.27-3.76-10.48-3.76zM35.92 83.82c-4.58 0-9.46-.41-11.91-.41.41-1.73.81-6.92.81-14.76V40.67c0-25.13.3-25.44 6.11-25.44h4.18c16.59 0 24.42 13.03 24.42 33.99 0 20.86-6.82 34.6-23.61 34.6zm59.53-49.15c6.72 0 9.36 4.68 9.36 8.65 0 1.73-.41 3.15-1.42 3.97-.51.41-2.14 1.02-4.07 1.22-4.89.2-10.48.41-18.32.51 1.52-9.16 7.02-14.35 14.45-14.35zm7.94 41.52c-13.33 0-22.79-8.45-22.79-21.68 0-1.73.1-3.36.3-4.88H110c3.89 0 5.8-.43 6.77-1.33l6.25 16.26c-4.62 7.44-11.19 11.63-19.63 11.63zm115.71 7.87c-13.52 0-23.67-18.16-23.67-34.96 0-19.94 8.24-33.19 21.89-33.19 12.84 0 22.73 18.3 22.73 35.37.01 20.22-8.66 32.78-20.95 32.78z"/>
    </g>
</svg>
