<svg width="1200" height="675" viewBox="0 0 1200 675" fill="none" xmlns="http://www.w3.org/2000/svg">
  <defs>
    <linearGradient id="bg3" x1="0" y1="0" x2="1" y2="1">
      <stop offset="0%" stop-color="#fff9f5"/>
      <stop offset="100%" stop-color="#edd8ff"/>
    </linearGradient>
    <linearGradient id="glow" x1="0" y1="0" x2="1" y2="0">
      <stop offset="0%" stop-color="#f5c48f"/>
      <stop offset="100%" stop-color="#8b3030"/>
    </linearGradient>
    <radialGradient id="halo" cx="0.5" cy="0.4" r="0.7">
      <stop offset="0%" stop-color="#ffe2c2" stop-opacity="0.9"/>
      <stop offset="100%" stop-color="#e5c7ff" stop-opacity="0"/>
    </radialGradient>
  </defs>
  <rect width="1200" height="675" fill="url(#bg3)"/>
  <circle cx="360" cy="200" r="170" fill="url(#halo)" opacity="0.8"/>
  <circle cx="920" cy="180" r="150" fill="url(#halo)" opacity="0.6"/>
  <g transform="translate(320 190)">
    <path d="M60 240C140 160 240 140 340 180C440 220 520 220 620 160V360H60V240Z" fill="#8b3030" opacity="0.25"/>
  </g>
  <g transform="translate(420 140)">
    <path d="M140 0H220C236 0 248 12 248 28V120C248 132 244 144 236 154L206 190C202 194 200 200 200 206V320C200 340 184 356 164 356H196C176 356 160 340 160 320V206C160 200 158 194 154 190L124 154C116 144 112 132 112 120V28C112 12 124 0 140 0Z" fill="#f7f2ec" stroke="#8b3030" stroke-width="4" stroke-linejoin="round"/>
    <rect x="152" y="32" width="56" height="46" rx="10" fill="#d9b28c" stroke="#8b3030" stroke-width="3"/>
    <path d="M128 120C128 140 170 158 180 164C190 158 232 140 232 120C232 102 215 92 180 92C145 92 128 102 128 120Z" fill="#ffe2c2" stroke="#8b3030" stroke-width="3"/>
    <path d="M170 132C170 126.477 174.477 122 180 122C185.523 122 190 126.477 190 132V180C190 185.523 185.523 190 180 190C174.477 190 170 185.523 170 180V132Z" fill="#8b3030"/>
    <circle cx="180" cy="260" r="70" fill="#8b3030" opacity="0.08"/>
  </g>
  <g transform="translate(640 250)" opacity="0.75">
    <path d="M0 60C70 40 120 34 180 40C230 46 270 60 320 60C380 60 430 40 500 20V110C430 140 370 150 310 140C250 130 200 110 140 102C80 94 40 106 0 120V60Z" fill="url(#glow)"/>
    <rect x="420" y="-20" width="40" height="140" rx="10" fill="#f7f2ec" stroke="#8b3030" stroke-width="3"/>
    <rect x="432" y="-46" width="16" height="40" rx="6" fill="#8b3030"/>
  </g>
  <g opacity="0.6">
    <circle cx="260" cy="470" r="8" fill="#8b3030"/>
    <circle cx="300" cy="490" r="10" fill="#d9b28c"/>
    <circle cx="900" cy="450" r="12" fill="#8b3030"/>
    <circle cx="940" cy="470" r="8" fill="#d9b28c"/>
  </g>
</svg>
