<svg width="1200" height="675" viewBox="0 0 1200 675" fill="none" xmlns="http://www.w3.org/2000/svg">
  <defs>
    <linearGradient id="bg2" x1="0" y1="0" x2="1" y2="1">
      <stop offset="0%" stop-color="#f9f5ff"/>
      <stop offset="100%" stop-color="#ffe8d8"/>
    </linearGradient>
    <linearGradient id="pan" x1="0" y1="0" x2="1" y2="1">
      <stop offset="0%" stop-color="#101828"/>
      <stop offset="100%" stop-color="#3b4256"/>
    </linearGradient>
    <linearGradient id="steam" x1="0" y1="0" x2="0" y2="1">
      <stop offset="0%" stop-color="#fef3e8"/>
      <stop offset="100%" stop-color="#fddcb1" stop-opacity="0"/>
    </linearGradient>
    <linearGradient id="slice" x1="0" y1="0" x2="1" y2="0">
      <stop offset="0%" stop-color="#f68b51"/>
      <stop offset="100%" stop-color="#8b3030"/>
    </linearGradient>
  </defs>
  <rect width="1200" height="675" fill="url(#bg2)"/>
  <circle cx="270" cy="180" r="140" fill="#ffd5b0" opacity="0.35"/>
  <circle cx="980" cy="180" r="120" fill="#c7d7ff" opacity="0.35"/>
  <g transform="translate(220 210)" opacity="0.65">
    <path d="M0 120C160 70 250 50 340 70C430 90 510 140 630 120C690 110 740 85 800 60V360H0V120Z" fill="#8b3030" opacity="0.35"/>
  </g>
  <g transform="translate(340 190)">
    <rect x="0" y="190" width="520" height="90" rx="45" fill="url(#pan)"/>
    <rect x="190" y="70" width="140" height="24" rx="12" fill="#ffd4a6" stroke="#8b3030" stroke-width="3"/>
    <rect x="215" y="0" width="90" height="140" rx="45" fill="url(#steam)" opacity="0.85"/>
    <rect x="70" y="170" width="380" height="28" rx="14" fill="#525c76"/>
    <rect x="510" y="200" width="110" height="18" rx="9" fill="#525c76"/>
    <rect x="600" y="206" width="70" height="12" rx="6" fill="#6e7285"/>
    <circle cx="260" cy="200" r="110" fill="#202636"/>
    <circle cx="260" cy="200" r="90" fill="#30384a"/>
    <path d="M260 110C310 110 350 150 350 200C350 220 343 237 332 252C300 250 260 230 230 200C200 170 180 130 178 98C193 118 222 110 260 110Z" fill="url(#slice)"/>
    <path d="M240 160C270 160 293 183 293 213C293 228 288 242 279 254C252 252 225 240 207 222C189 204 178 182 176 162C188 170 206 160 240 160Z" fill="#ffd4a6" opacity="0.9"/>
    <circle cx="330" cy="245" r="14" fill="#ffd166"/>
    <circle cx="205" cy="230" r="10" fill="#ffd166"/>
    <circle cx="295" cy="215" r="8" fill="#8b3030"/>
    <circle cx="225" cy="205" r="8" fill="#8b3030"/>
    <circle cx="260" cy="200" r="6" fill="#ffd4a6"/>
  </g>
  <g opacity="0.7">
    <rect x="910" y="420" width="140" height="14" rx="7" fill="#8b3030"/>
    <rect x="930" y="400" width="100" height="14" rx="7" fill="#d9b28c"/>
    <rect x="950" y="380" width="60" height="14" rx="7" fill="#f7f2ec"/>
  </g>
</svg>
